<?xml version="1.0" encoding="UTF-8" standalone="no"?>
<!-- Created with Inkscape (http://www.inkscape.org/) -->

<svg
   width="12.699995mm"
   height="12.700049mm"
   viewBox="0 0 12.699995 12.700049"
   version="1.1"
   id="svg1"
   xml:space="preserve"
   xmlns:inkscape="http://www.inkscape.org/namespaces/inkscape"
   xmlns:sodipodi="http://sodipodi.sourceforge.net/DTD/sodipodi-0.dtd"
   xmlns="http://www.w3.org/2000/svg"
   xmlns:svg="http://www.w3.org/2000/svg"><sodipodi:namedview
     id="namedview1"
     pagecolor="#ffffff"
     bordercolor="#000000"
     borderopacity="0.25"
     inkscape:showpageshadow="2"
     inkscape:pageopacity="0.0"
     inkscape:pagecheckerboard="0"
     inkscape:deskcolor="#d1d1d1"
     inkscape:document-units="mm"><inkscape:page
       x="0"
       y="0"
       width="12.699995"
       height="12.700049"
       id="page2"
       margin="0"
       bleed="0" /></sodipodi:namedview><defs
     id="defs1" /><g
     inkscape:label="Layer 1"
     inkscape:groupmode="layer"
     id="layer1"
     transform="translate(-1.0014701,148.44976)"><path
       id="text1"
       style="font-style:normal;font-variant:normal;font-weight:normal;font-stretch:normal;font-size:14.3146px;font-family:'Enclave Demo';-inkscape-font-specification:'Enclave Demo, Normal';font-variant-ligatures:normal;font-variant-caps:normal;font-variant-numeric:normal;font-variant-east-asian:normal;text-align:start;writing-mode:lr-tb;direction:ltr;text-anchor:start;fill:#50d6fe;fill-opacity:1;stroke-width:1.19259"
       d="m 7.2031539,-148.44852 c -0.7176662,0.0164 -1.3997202,0.17578 -2.0355342,0.47623 -1.012017,0.47822 -1.85081,1.30812 -2.36368,2.31655 l 0.432531,0.44524 c 0.147407,-0.32584 0.332013,-0.63715 0.552421,-0.9256 0.146545,-0.19177 0.52677,-0.57939 0.727088,-0.74119 0.144092,-0.11639 0.294753,-0.21933 0.448551,-0.31558 v -0.31766 l 0.195337,0.19988 c 1.456528,-0.81254 3.2560714,-0.76054 4.6736166,0.19215 0.9449337,0.63506 1.6142067,1.60031 1.8887737,2.72357 0.23436,0.95878 0.129461,2.14895 -0.300757,3.48541 l 0.450619,0.46074 c 0.209702,-0.60091 0.366186,-1.21243 0.459403,-1.80521 v -2.03248 c -0.294135,-1.55041 -1.280195,-2.90976 -2.714563,-3.63004 -0.6821286,-0.34253 -1.3213488,-0.50345 -2.1037475,-0.52994 -0.1039436,-0.004 -0.2075348,-0.004 -0.3100586,-0.002 z m 5.1283691,4.16205 c 0.08315,0.4383 0.114254,0.89074 0.08061,1.34964 -0.01638,0.22346 -0.04429,0.45181 -0.08061,0.68284 v 2.27472 l -0.459403,-0.46951 c -0.156084,0.44725 -0.341107,0.8887 -0.551388,1.31142 l 2.380733,2.44826 v -10.36018 h -1.369942 z m -1.010791,5.14911 -0.429431,-0.44111 c -0.248232,0.51483 -0.550094,1.05363 -0.794267,1.39407 -0.119543,0.16668 -0.2392414,0.31976 -0.3586343,0.46331 v 0.84605 c 0.3154053,-0.30786 0.6193833,-0.67464 0.9069213,-1.09914 0.245907,-0.36303 0.472071,-0.75441 0.675411,-1.16318 z m -1.5823323,2.26232 c -0.031121,0.0304 -0.062193,0.0612 -0.093534,0.0904 l 0.093534,0.0956 z m -0.093534,0.0904 -0.3999756,-0.40856 c -0.5292109,0.49536 -1.0677076,0.77609 -1.6412435,0.85793 -0.1542615,0.0221 -0.3721549,0.026 -0.4862752,0.009 -0.6690793,-0.10042 -1.1513403,-0.35807 -1.7492473,-0.93488 -0.601121,-0.57994 -1.092625,-1.29133 -1.554944,-2.24993 -0.580206,-1.20304 -0.930303,-2.48238 -0.985469,-3.60163 -0.01018,-0.20648 -0.0048,-0.41342 0.01447,-0.61982 l -0.470772,-0.48035 v 2.13887 c 0.292257,1.61893 1.024894,3.30771 1.97714,4.54117 0.220098,0.28511 0.778441,0.85991 0.992704,1.02166 0.566607,0.42774 1.075888,0.65752 1.6629479,0.74998 v -5.1e-4 c 0.1419848,0.0224 0.573713,0.0119 0.7617106,-0.0186 0.6444447,-0.10447 1.2813529,-0.44729 1.8789551,-1.00409 z m -7.2734576,-5.2896 c -0.01245,-0.069 -0.02535,-0.13795 -0.03617,-0.20661 -0.159082,-1.00864 -0.08005,-1.99123 0.227377,-2.82634 0.0692,-0.18798 0.15092,-0.37077 0.241329,-0.54854 l -1.802474,-1.85479 v 10.36742 h 1.369942 z m 0.470772,-1.65852 0.82579,0.84398 c 0.01349,-0.26893 0.06223,-0.54207 0.149344,-0.82642 0.106799,-0.34857 0.193406,-0.4048 0.502295,-0.32695 0.02403,0.006 0.04987,0.0157 0.07441,0.0227 l -1.157552,-1.19107 c -0.212879,0.47055 -0.34712,0.97153 -0.394291,1.47773 z m 1.551843,-0.28666 2.122868,2.18485 c -0.07072,-0.34084 -0.204932,-0.65619 -0.413411,-0.97725 -0.133729,-0.20595 -0.556851,-0.62939 -0.773596,-0.77425 -0.279682,-0.18691 -0.625479,-0.34491 -0.935861,-0.43335 z m 2.122868,2.18485 c 0.04046,0.19498 0.06061,0.39796 0.06098,0.61619 5.74e-4,0.33916 -0.03923,0.62892 -0.129191,0.93748 -0.02147,0.0737 -0.03944,0.12845 -0.05633,0.17457 l 2.852539,2.91313 c 0.1652055,-0.15464 0.3293615,-0.33051 0.49351,-0.52788 v -0.79853 z m -0.12454,1.72824 -0.460954,-0.47106 c -0.0016,0.006 -0.0055,0.0283 -0.0067,0.0315 l -0.01757,0.047 -0.12454,-0.0512 c -0.628891,-0.25784 -1.049265,-0.63455 -1.313098,-1.17713 -0.09656,-0.19859 -0.148477,-0.35156 -0.179834,-0.52684 l -0.621667,-0.6348 c -0.01502,0.29947 0.01425,0.59388 0.08992,0.89201 0.250491,0.98698 1.035577,1.76339 2.102714,2.07897 0.224022,0.0662 0.297313,0.0686 0.390157,0.0119 0.06398,-0.039 0.09941,-0.0852 0.141593,-0.20041 z m -2.102714,-2.14765 1.64176,1.67659 c 0.01135,-0.0406 0.02925,-0.12169 0.04651,-0.22055 0.04674,-0.26763 0.0304,-0.71457 -0.03617,-0.9855 -0.06508,-0.26481 -0.258486,-0.64875 -0.4408,-0.87497 -0.164657,-0.20432 -0.405213,-0.40941 -0.644406,-0.54905 -0.196311,-0.11458 -0.498378,-0.23636 -0.523482,-0.21126 -0.0505,0.0506 -0.09312,0.45386 -0.08216,0.7758 0.0053,0.15482 0.01849,0.27562 0.03876,0.38894 z m 6.6016639,2.67552 c 0.106783,-0.22146 0.206464,-0.439 0.28267,-0.63376 0.09256,-0.23655 0.173999,-0.46886 0.24753,-0.69729 l -0.653707,-0.66836 c -0.179467,0.4027 -0.450568,0.76838 -0.7942662,1.05523 z m -0.9177732,-0.94418 -0.4004923,-0.41165 c -0.1425649,0.11217 -0.3019079,0.21055 -0.4790405,0.29544 -0.1133313,0.0542 -0.2361576,0.10509 -0.2728516,0.11209 -0.064754,0.0129 -0.067359,0.01 -0.094051,-0.10589 -0.091118,-0.39455 -0.081223,-0.78989 0.014469,-1.15699 l -0.4537191,-0.46641 c -0.011478,0.0294 -0.023566,0.0585 -0.034106,0.0884 -0.1210306,0.34299 -0.1515367,0.53598 -0.151412,0.96071 1.247e-4,0.42261 0.03123,0.6327 0.1472779,0.99479 0.063309,0.19755 0.1302164,0.29776 0.2247924,0.33574 0.1584338,0.0636 0.8312532,-0.18315 1.2448853,-0.4566 0.08864,-0.0586 0.1730472,-0.12179 0.254248,-0.18956 z m -1.6856852,-1.73341 c 0.1636387,-0.41885 0.4214181,-0.78707 0.7544759,-1.08571 l -3.8824504,-3.96888 c -0.0661,0.0369 -0.130719,0.0774 -0.195337,0.11778 v 1.51957 z m 0.7544759,-1.08571 0.3999756,0.40856 c 0.077603,-0.0685 0.1595295,-0.13315 0.2475301,-0.19162 0.164493,-0.10931 0.4890838,-0.27094 0.5978958,-0.29803 0.05715,-0.0142 0.06085,-0.01 0.08578,0.10537 0.09748,0.44957 0.07951,0.88825 -0.04703,1.28869 l 0.441317,0.45092 c 0.104804,-0.23517 0.180732,-0.48201 0.216008,-0.73551 0.08796,-0.63206 -0.07281,-1.5541 -0.299724,-1.71895 -0.08683,-0.0631 -0.201642,-0.0548 -0.47904,0.0336 -0.4462644,0.14206 -0.8393358,0.36704 -1.1627195,0.657 z m 1.2841585,1.31297 -0.8841829,-0.90441 c -0.3463093,0.30537 -0.5860316,0.70353 -0.7007324,1.14356 l 0.8314738,0.85535 c 0.1510318,-0.11885 0.2834746,-0.25311 0.3973917,-0.40392 0.1595948,-0.21126 0.2780818,-0.44382 0.3560498,-0.69058 z"
       inkscape:export-filename="logo.png"
       inkscape:export-xdpi="300"
       inkscape:export-ydpi="300" /></g></svg>
